<?xml version="1.0" encoding="utf-8"?>
<!-- created with bpmn-js / http://bpmn.io -->
<!DOCTYPE svg PUBLIC "-//W3C//DTD SVG 1.1//EN" "http://www.w3.org/Graphics/SVG/1.1/DTD/svg11.dtd">
<svg xmlns="http://www.w3.org/2000/svg" xmlns:xlink="http://www.w3.org/1999/xlink" width="1432" height="442" viewBox="125 54 1432 442" version="1.1"><defs><marker id="sequenceflow-end-white-black-a3zhbk2kl978bom4iui2csx0b" viewBox="0 0 20 20" refX="11" refY="10" markerWidth="10" markerHeight="10" orient="auto"><path d="M 1 5 L 11 10 L 1 15 Z" style="fill: black; stroke-width: 1px; stroke-linecap: round; stroke-dasharray: 10000, 1; stroke: black;"/></marker></defs><g class="djs-group"><g class="djs-element djs-shape selected" data-element-id="Participant_06kker9" style="display: block;" transform="matrix(1 0 0 1 131 60)"><g class="djs-visual"><rect x="0" y="0" width="1420" height="430" rx="0" ry="0" style="stroke: black; stroke-width: 2px; fill: white; fill-opacity: 0.95;"/><polyline points="30,0 30,430 " style="fill: none; stroke: black; stroke-width: 2px;"/><text lineHeight="1.2" class="djs-label" style="font-family: Arial, sans-serif; font-size: 12px; font-weight: normal; fill: black;" transform="matrix(-1.83697e-16 -1 1 -1.83697e-16 0 430)"><tspan x="215" y="18.6"/></text></g><rect x="-6" y="-6" width="1432" height="442" class="djs-outline" style="fill: none;"/><rect class="djs-hit djs-hit-click-stroke" x="0" y="0" width="1420" height="430" style="fill: none; stroke-opacity: 0; stroke: white; stroke-width: 15px;"/><rect class="djs-hit djs-hit-all" x="0" y="0" width="30" height="430" style="fill: none; stroke-opacity: 0; stroke: white; stroke-width: 15px;"/></g><g class="djs-children"><g class="djs-group"><g class="djs-element djs-shape" data-element-id="TextAnnotation_0hunrj9" style="display: block;" transform="matrix(1 0 0 1 1430 80)"><g class="djs-visual"><rect x="0" y="0" width="100" height="30" rx="0" ry="0" style="stroke: none; stroke-width: 2px; fill: none;"/><path d="m 0, 0 m 10,0 l -10,0 l 0,30 l 10,0" style="fill: none; stroke-width: 2px; stroke: black;"/><text lineHeight="1.2" class="djs-label" style="font-family: Arial, sans-serif; font-size: 12px; font-weight: normal; fill: black;"><tspan x="5" y="15.799999999999999">Fin process</tspan></text></g><rect class="djs-hit djs-hit-all" x="0" y="0" width="100" height="30" style="fill: none; stroke-opacity: 0; stroke: white; stroke-width: 15px;"/><rect x="-6" y="-6" width="112" height="42" class="djs-outline" style="fill: none;"/></g></g><g class="djs-group"><g class="djs-element djs-connection" data-element-id="Flow_00h5b72" style="display: block;"><g class="djs-visual"><path d="m  1230,205L1230,430 L410,430 L410,220 " style="fill: none; stroke-width: 2px; stroke: black; stroke-linejoin: round; marker-end: url('#sequenceflow-end-white-black-a3zhbk2kl978bom4iui2csx0b');"/></g><polyline points="1230,205 1230,430 410,430 410,220 " class="djs-hit djs-hit-stroke" style="fill: none; stroke-opacity: 0; stroke: white; stroke-width: 15px;"/><rect x="404" y="199" width="832" height="237" class="djs-outline" style="fill: none;"/></g></g><g class="djs-group"><g class="djs-element djs-connection" data-element-id="Flow_0aix091" style="display: block;"><g class="djs-visual"><path d="m  1255,180L1392,180 " style="fill: none; stroke-width: 2px; stroke: black; stroke-linejoin: round; marker-end: url('#sequenceflow-end-white-black-a3zhbk2kl978bom4iui2csx0b');"/></g><polyline points="1255,180 1392,180 " class="djs-hit djs-hit-stroke" style="fill: none; stroke-opacity: 0; stroke: white; stroke-width: 15px;"/><rect x="1249" y="174" width="149" height="12" class="djs-outline" style="fill: none;"/></g></g><g class="djs-group"><g class="djs-element djs-connection" data-element-id="Flow_0ukm0jf" style="display: block;"><g class="djs-visual"><path d="m  1070,180L1205,180 " style="fill: none; stroke-width: 2px; stroke: black; stroke-linejoin: round; marker-end: url('#sequenceflow-end-white-black-a3zhbk2kl978bom4iui2csx0b');"/></g><polyline points="1070,180 1205,180 " class="djs-hit djs-hit-stroke" style="fill: none; stroke-opacity: 0; stroke: white; stroke-width: 15px;"/><rect x="1064" y="174" width="147" height="12" class="djs-outline" style="fill: none;"/></g></g><g class="djs-group"><g class="djs-element djs-connection" data-element-id="Flow_06tlk30" style="display: block;"><g class="djs-visual"><path d="m  550,340L370,340 L370,220 " style="fill: none; stroke-width: 2px; stroke: black; stroke-linejoin: round; marker-end: url('#sequenceflow-end-white-black-a3zhbk2kl978bom4iui2csx0b');"/></g><polyline points="550,340 370,340 370,220 " class="djs-hit djs-hit-stroke" style="fill: none; stroke-opacity: 0; stroke: white; stroke-width: 15px;"/><rect x="364" y="214" width="192" height="132" class="djs-outline" style="fill: none;"/></g></g><g class="djs-group"><g class="djs-element djs-connection" data-element-id="Flow_1cn472k" style="display: block;"><g class="djs-visual"><path d="m  810,205L810,340 L650,340 " style="fill: none; stroke-width: 2px; stroke: black; stroke-linejoin: round; marker-end: url('#sequenceflow-end-white-black-a3zhbk2kl978bom4iui2csx0b');"/></g><polyline points="810,205 810,340 650,340 " class="djs-hit djs-hit-stroke" style="fill: none; stroke-opacity: 0; stroke: white; stroke-width: 15px;"/><rect x="644" y="199" width="172" height="147" class="djs-outline" style="fill: none;"/></g></g><g class="djs-group"><g class="djs-element djs-connection" data-element-id="Flow_0y029p9" style="display: block;"><g class="djs-visual"><path d="m  835,180L970,180 " style="fill: none; stroke-width: 2px; stroke: black; stroke-linejoin: round; marker-end: url('#sequenceflow-end-white-black-a3zhbk2kl978bom4iui2csx0b');"/></g><polyline points="835,180 970,180 " class="djs-hit djs-hit-stroke" style="fill: none; stroke-opacity: 0; stroke: white; stroke-width: 15px;"/><rect x="829" y="174" width="147" height="12" class="djs-outline" style="fill: none;"/></g></g><g class="djs-group"><g class="djs-element djs-connection" data-element-id="Flow_0i1j2ph" style="display: block;"><g class="djs-visual"><path d="m  650,180L785,180 " style="fill: none; stroke-width: 2px; stroke: black; stroke-linejoin: round; marker-end: url('#sequenceflow-end-white-black-a3zhbk2kl978bom4iui2csx0b');"/></g><polyline points="650,180 785,180 " class="djs-hit djs-hit-stroke" style="fill: none; stroke-opacity: 0; stroke: white; stroke-width: 15px;"/><rect x="644" y="174" width="147" height="12" class="djs-outline" style="fill: none;"/></g></g><g class="djs-group"><g class="djs-element djs-connection" data-element-id="Flow_0i1b20a" style="display: block;"><g class="djs-visual"><path d="m  420,180L550,180 " style="fill: none; stroke-width: 2px; stroke: black; stroke-linejoin: round; marker-end: url('#sequenceflow-end-white-black-a3zhbk2kl978bom4iui2csx0b');"/></g><polyline points="420,180 550,180 " class="djs-hit djs-hit-stroke" style="fill: none; stroke-opacity: 0; stroke: white; stroke-width: 15px;"/><rect x="414" y="174" width="142" height="12" class="djs-outline" style="fill: none;"/></g></g><g class="djs-group"><g class="djs-element djs-connection" data-element-id="Flow_1afoycq" style="display: block;"><g class="djs-visual"><path d="m  218,180L320,180 " style="fill: none; stroke-width: 2px; stroke: black; stroke-linejoin: round; marker-end: url('#sequenceflow-end-white-black-a3zhbk2kl978bom4iui2csx0b');"/></g><polyline points="218,180 320,180 " class="djs-hit djs-hit-stroke" style="fill: none; stroke-opacity: 0; stroke: white; stroke-width: 15px;"/><rect x="212" y="174" width="114" height="12" class="djs-outline" style="fill: none;"/></g></g><g class="djs-group"><g class="djs-element djs-shape" data-element-id="StartEvent_1" style="display: block;" transform="matrix(1 0 0 1 182 162)"><g class="djs-visual"><circle cx="18" cy="18" r="18" style="stroke: black; stroke-width: 2px; fill: white; fill-opacity: 0.95;"/></g><rect class="djs-hit djs-hit-all" x="0" y="0" width="36" height="36" style="fill: none; stroke-opacity: 0; stroke: white; stroke-width: 15px;"/><rect x="-6" y="-6" width="48" height="48" class="djs-outline" style="fill: none;"/></g></g><g class="djs-group"><g class="djs-element djs-shape" data-element-id="Activity_04i1lnd" style="display: block;" transform="matrix(1 0 0 1 320 140)"><g class="djs-visual"><rect x="0" y="0" width="100" height="80" rx="10" ry="10" style="stroke: black; stroke-width: 2px; fill: white; fill-opacity: 0.95;"/><text lineHeight="1.2" class="djs-label" style="font-family: Arial, sans-serif; font-size: 12px; font-weight: normal; fill: black;"><tspan x="12.478515625" y="36.4">Initiation Chef </tspan><tspan x="20.8212890625" y="50.8">Comptable</tspan></text><path d="m 15,12 c 0.909,-0.845 1.594,-2.049 1.594,-3.385 0,-2.554 -1.805,-4.62199999 -4.357,-4.62199999 -2.55199998,0 -4.28799998,2.06799999 -4.28799998,4.62199999 0,1.348 0.974,2.562 1.89599998,3.405 -0.52899998,0.187 -5.669,2.097 -5.794,4.7560005 v 6.718 h 17 v -6.718 c 0,-2.2980005 -5.5279996,-4.5950005 -6.0509996,-4.7760005 zm -8,6 l 0,5.5 m 11,0 l 0,-5" style="fill: white; stroke-width: 0.5px; stroke: black;"/><path d="m 15,12 m 2.162,1.009 c 0,2.4470005 -2.158,4.4310005 -4.821,4.4310005 -2.66499998,0 -4.822,-1.981 -4.822,-4.4310005 " style="fill: white; stroke-width: 0.5px; stroke: black;"/><path d="m 15,12 m -6.9,-3.80 c 0,0 2.25099998,-2.358 4.27399998,-1.177 2.024,1.181 4.221,1.537 4.124,0.965 -0.098,-0.57 -0.117,-3.79099999 -4.191,-4.13599999 -3.57499998,0.001 -4.20799998,3.36699999 -4.20699998,4.34799999 z" style="fill: black; stroke-width: 0.5px; stroke: black;"/></g><rect class="djs-hit djs-hit-all" x="0" y="0" width="100" height="80" style="fill: none; stroke-opacity: 0; stroke: white; stroke-width: 15px;"/><rect x="-6" y="-6" width="112" height="92" class="djs-outline" style="fill: none;"/></g></g><g class="djs-group"><g class="djs-element djs-shape" data-element-id="Gateway_0g4tply" style="display: block;" transform="matrix(1 0 0 1 785 155)"><g class="djs-visual"><polygon points="25,0 50,25 25,50 0,25" style="stroke: black; stroke-width: 2px; fill: white; fill-opacity: 0.95;"/><path d="m 16,15 7.42857142857143,9.714285714285715 -7.42857142857143,9.714285714285715 3.428571428571429,0 5.714285714285715,-7.464228571428572 5.714285714285715,7.464228571428572 3.428571428571429,0 -7.42857142857143,-9.714285714285715 7.42857142857143,-9.714285714285715 -3.428571428571429,0 -5.714285714285715,7.464228571428572 -5.714285714285715,-7.464228571428572 -3.428571428571429,0 z" style="fill: black; stroke-width: 1px; stroke: black;"/></g><rect class="djs-hit djs-hit-all" x="0" y="0" width="50" height="50" style="fill: none; stroke-opacity: 0; stroke: white; stroke-width: 15px;"/><rect x="-6" y="-6" width="62" height="62" class="djs-outline" style="fill: none;"/></g></g><g class="djs-group"><g class="djs-element djs-shape" data-element-id="Gateway_044nn5j" style="display: block;" transform="matrix(1 0 0 1 1205 155)"><g class="djs-visual"><polygon points="25,0 50,25 25,50 0,25" style="stroke: black; stroke-width: 2px; fill: white; fill-opacity: 0.95;"/><path d="m 16,15 7.42857142857143,9.714285714285715 -7.42857142857143,9.714285714285715 3.428571428571429,0 5.714285714285715,-7.464228571428572 5.714285714285715,7.464228571428572 3.428571428571429,0 -7.42857142857143,-9.714285714285715 7.42857142857143,-9.714285714285715 -3.428571428571429,0 -5.714285714285715,7.464228571428572 -5.714285714285715,-7.464228571428572 -3.428571428571429,0 z" style="fill: black; stroke-width: 1px; stroke: black;"/></g><rect class="djs-hit djs-hit-all" x="0" y="0" width="50" height="50" style="fill: none; stroke-opacity: 0; stroke: white; stroke-width: 15px;"/><rect x="-6" y="-6" width="62" height="62" class="djs-outline" style="fill: none;"/></g></g><g class="djs-group"><g class="djs-element djs-shape" data-element-id="Event_0m34qsz" style="display: block;" transform="matrix(1 0 0 1 1392 162)"><g class="djs-visual"><circle cx="18" cy="18" r="18" style="stroke: black; stroke-width: 4px; fill: white; fill-opacity: 0.95;"/></g><rect class="djs-hit djs-hit-all" x="0" y="0" width="36" height="36" style="fill: none; stroke-opacity: 0; stroke: white; stroke-width: 15px;"/><rect x="-6" y="-6" width="48" height="48" class="djs-outline" style="fill: none;"/></g></g><g class="djs-group"><g class="djs-element djs-shape" data-element-id="Activity_16leqof" style="display: block;" transform="matrix(1 0 0 1 550 140)"><g class="djs-visual"><rect x="0" y="0" width="100" height="80" rx="10" ry="10" style="stroke: black; stroke-width: 2px; fill: white; fill-opacity: 0.95;"/><text lineHeight="1.2" class="djs-label" style="font-family: Arial, sans-serif; font-size: 12px; font-weight: normal; fill: black;"><tspan x="13.8251953125" y="36.4">Commentaire </tspan><tspan x="37.6650390625" y="50.8">RAF</tspan></text><path d="m 15,12 c 0.909,-0.845 1.594,-2.049 1.594,-3.385 0,-2.554 -1.805,-4.62199999 -4.357,-4.62199999 -2.55199998,0 -4.28799998,2.06799999 -4.28799998,4.62199999 0,1.348 0.974,2.562 1.89599998,3.405 -0.52899998,0.187 -5.669,2.097 -5.794,4.7560005 v 6.718 h 17 v -6.718 c 0,-2.2980005 -5.5279996,-4.5950005 -6.0509996,-4.7760005 zm -8,6 l 0,5.5 m 11,0 l 0,-5" style="fill: white; stroke-width: 0.5px; stroke: black;"/><path d="m 15,12 m 2.162,1.009 c 0,2.4470005 -2.158,4.4310005 -4.821,4.4310005 -2.66499998,0 -4.822,-1.981 -4.822,-4.4310005 " style="fill: white; stroke-width: 0.5px; stroke: black;"/><path d="m 15,12 m -6.9,-3.80 c 0,0 2.25099998,-2.358 4.27399998,-1.177 2.024,1.181 4.221,1.537 4.124,0.965 -0.098,-0.57 -0.117,-3.79099999 -4.191,-4.13599999 -3.57499998,0.001 -4.20799998,3.36699999 -4.20699998,4.34799999 z" style="fill: black; stroke-width: 0.5px; stroke: black;"/></g><rect class="djs-hit djs-hit-all" x="0" y="0" width="100" height="80" style="fill: none; stroke-opacity: 0; stroke: white; stroke-width: 15px;"/><rect x="-6" y="-6" width="112" height="92" class="djs-outline" style="fill: none;"/></g></g><g class="djs-group"><g class="djs-element djs-shape" data-element-id="Activity_1n7mjvg" style="display: block;" transform="matrix(1 0 0 1 970 140)"><g class="djs-visual"><rect x="0" y="0" width="100" height="80" rx="10" ry="10" style="stroke: black; stroke-width: 2px; fill: white; fill-opacity: 0.95;"/><text lineHeight="1.2" class="djs-label" style="font-family: Arial, sans-serif; font-size: 12px; font-weight: normal; fill: black;"><tspan x="17.978515625" y="36.4">Approbation </tspan><tspan x="37.6650390625" y="50.8">DAF</tspan></text><path d="m 15,12 c 0.909,-0.845 1.594,-2.049 1.594,-3.385 0,-2.554 -1.805,-4.62199999 -4.357,-4.62199999 -2.55199998,0 -4.28799998,2.06799999 -4.28799998,4.62199999 0,1.348 0.974,2.562 1.89599998,3.405 -0.52899998,0.187 -5.669,2.097 -5.794,4.7560005 v 6.718 h 17 v -6.718 c 0,-2.2980005 -5.5279996,-4.5950005 -6.0509996,-4.7760005 zm -8,6 l 0,5.5 m 11,0 l 0,-5" style="fill: white; stroke-width: 0.5px; stroke: black;"/><path d="m 15,12 m 2.162,1.009 c 0,2.4470005 -2.158,4.4310005 -4.821,4.4310005 -2.66499998,0 -4.822,-1.981 -4.822,-4.4310005 " style="fill: white; stroke-width: 0.5px; stroke: black;"/><path d="m 15,12 m -6.9,-3.80 c 0,0 2.25099998,-2.358 4.27399998,-1.177 2.024,1.181 4.221,1.537 4.124,0.965 -0.098,-0.57 -0.117,-3.79099999 -4.191,-4.13599999 -3.57499998,0.001 -4.20799998,3.36699999 -4.20699998,4.34799999 z" style="fill: black; stroke-width: 0.5px; stroke: black;"/></g><rect class="djs-hit djs-hit-all" x="0" y="0" width="100" height="80" style="fill: none; stroke-opacity: 0; stroke: white; stroke-width: 15px;"/><rect x="-6" y="-6" width="112" height="92" class="djs-outline" style="fill: none;"/></g></g><g class="djs-group"><g class="djs-element djs-shape" data-element-id="Activity_0j0fsfu" style="display: block;" transform="matrix(1 0 0 1 550 300)"><g class="djs-visual"><rect x="0" y="0" width="100" height="80" rx="10" ry="10" style="stroke: black; stroke-width: 2px; fill: white; fill-opacity: 0.95;"/><text lineHeight="1.2" class="djs-label" style="font-family: Arial, sans-serif; font-size: 12px; font-weight: normal; fill: black;"><tspan x="23.8212890625" y="29.200000000000003">Demande </tspan><tspan x="20.15625" y="43.6">information </tspan><tspan x="19.65625" y="58">(correction)</tspan></text><path d="m 15,12 c 0.909,-0.845 1.594,-2.049 1.594,-3.385 0,-2.554 -1.805,-4.62199999 -4.357,-4.62199999 -2.55199998,0 -4.28799998,2.06799999 -4.28799998,4.62199999 0,1.348 0.974,2.562 1.89599998,3.405 -0.52899998,0.187 -5.669,2.097 -5.794,4.7560005 v 6.718 h 17 v -6.718 c 0,-2.2980005 -5.5279996,-4.5950005 -6.0509996,-4.7760005 zm -8,6 l 0,5.5 m 11,0 l 0,-5" style="fill: white; stroke-width: 0.5px; stroke: black;"/><path d="m 15,12 m 2.162,1.009 c 0,2.4470005 -2.158,4.4310005 -4.821,4.4310005 -2.66499998,0 -4.822,-1.981 -4.822,-4.4310005 " style="fill: white; stroke-width: 0.5px; stroke: black;"/><path d="m 15,12 m -6.9,-3.80 c 0,0 2.25099998,-2.358 4.27399998,-1.177 2.024,1.181 4.221,1.537 4.124,0.965 -0.098,-0.57 -0.117,-3.79099999 -4.191,-4.13599999 -3.57499998,0.001 -4.20799998,3.36699999 -4.20699998,4.34799999 z" style="fill: black; stroke-width: 0.5px; stroke: black;"/></g><rect class="djs-hit djs-hit-all" x="0" y="0" width="100" height="80" style="fill: none; stroke-opacity: 0; stroke: white; stroke-width: 15px;"/><rect x="-6" y="-6" width="112" height="92" class="djs-outline" style="fill: none;"/></g></g><g class="djs-group"><g class="djs-element djs-connection" data-element-id="Association_1dix3cy" style="display: block;"><g class="djs-visual"><polyline points="1421,166 1468,110 " style="fill: none; stroke: black; stroke-width: 2px; stroke-dasharray: 0.5, 5; stroke-linecap: round; stroke-linejoin: round;"/></g><polyline points="1421,166 1468,110 " class="djs-hit djs-hit-stroke" style="fill: none; stroke-opacity: 0; stroke: white; stroke-width: 15px;"/><rect x="1415" y="104" width="59" height="68" class="djs-outline" style="fill: none;"/></g></g></g></g><g class="djs-group"><g class="djs-element djs-shape" data-element-id="Flow_0y029p9_label" style="display: block;" transform="matrix(1 0 0 1 894 162)"><g class="djs-visual"><text lineHeight="1.2" class="djs-label" style="font-family: Arial, sans-serif; font-size: 11px; font-weight: normal; fill: black;"><tspan x="0" y="9.899999999999999">Oui</tspan></text></g><rect class="djs-hit djs-hit-all" x="0" y="0" width="18" height="14" style="fill: none; stroke-opacity: 0; stroke: white; stroke-width: 15px;"/><rect x="-6" y="-6" width="30" height="26" class="djs-outline" style="fill: none;"/></g></g><g class="djs-group"><g class="djs-element djs-shape" data-element-id="Flow_1cn472k_label" style="display: block;" transform="matrix(1 0 0 1 815 270)"><g class="djs-visual"><text lineHeight="1.2" class="djs-label" style="font-family: Arial, sans-serif; font-size: 11px; font-weight: normal; fill: black;"><tspan x="0" y="9.899999999999999">Non</tspan></text></g><rect class="djs-hit djs-hit-all" x="0" y="0" width="21" height="14" style="fill: none; stroke-opacity: 0; stroke: white; stroke-width: 15px;"/><rect x="-6" y="-6" width="33" height="26" class="djs-outline" style="fill: none;"/></g></g><g class="djs-group"><g class="djs-element djs-shape" data-element-id="Flow_0aix091_label" style="display: block;" transform="matrix(1 0 0 1 1315 162)"><g class="djs-visual"><text lineHeight="1.2" class="djs-label" style="font-family: Arial, sans-serif; font-size: 11px; font-weight: normal; fill: black;"><tspan x="0" y="9.899999999999999">Oui</tspan></text></g><rect class="djs-hit djs-hit-all" x="0" y="0" width="18" height="14" style="fill: none; stroke-opacity: 0; stroke: white; stroke-width: 15px;"/><rect x="-6" y="-6" width="30" height="26" class="djs-outline" style="fill: none;"/></g></g><g class="djs-group"><g class="djs-element djs-shape" data-element-id="Flow_00h5b72_label" style="display: block;" transform="matrix(1 0 0 1 1239 283)"><g class="djs-visual"><text lineHeight="1.2" class="djs-label" style="font-family: Arial, sans-serif; font-size: 11px; font-weight: normal; fill: black;"><tspan x="0" y="9.899999999999999">Non</tspan></text></g><rect class="djs-hit djs-hit-all" x="0" y="0" width="21" height="14" style="fill: none; stroke-opacity: 0; stroke: white; stroke-width: 15px;"/><rect x="-6" y="-6" width="33" height="26" class="djs-outline" style="fill: none;"/></g></g></svg>